<svg xmlns="http://www.w3.org/2000/svg" aria-hidden="true" style="position:absolute;width:0;height:0;overflow:hidden">
  <defs>
    <symbol id="icon-facebook" viewBox="0 0 32 32">
      <path
        d="M21.329 5.313h2.921V.225C23.746.156 22.013 0 19.994 0c-4.212 0-7.097 2.649-7.097 7.519V12H8.249v5.688h4.648V32h5.699V17.689h4.46l.708-5.688h-5.169V8.082c.001-1.644.444-2.769 2.735-2.769z" />
    </symbol>
    <symbol id="icon-key" viewBox="0 0 32 32">
      <path
        d="m31.317 9.82-3.16-3.159-2.818-2.818-3.16-3.159c-.775-.775-2.155-.911-3.067-.304l-8.639 5.759c-.912.608-1.257 1.907-.767 2.887l2.203 4.405c.067.135.145.278.231.427L.998 25l-1 7h6v-2h4v-4h4v-4h4v-2.225c.2.119.392.226.569.314l4.405 2.203c.98.49 2.279.145 2.887-.767l5.759-8.639c.608-.912.471-2.292-.304-3.066zM4.707 26.707l-1.414-1.414 9.737-9.737 1.414 1.414-9.737 9.737zm23.95-13.464-1.414 1.414a1.003 1.003 0 0 1-1.414 0l-8.485-8.485a1.003 1.003 0 0 1 0-1.414l1.414-1.414a1.003 1.003 0 0 1 1.414 0l8.485 8.485a1.003 1.003 0 0 1 0 1.414z" />
    </symbol>
    <symbol id="icon-star-empty" viewBox="0 0 32 32">
      <path
        d="m32 12.408-11.056-1.607L16 .783l-4.944 10.018L0 12.408l8 7.798-1.889 11.011L16 26.018l9.889 5.199L24 20.206l8-7.798zM16 23.547l-6.983 3.671 1.334-7.776-5.65-5.507 7.808-1.134 3.492-7.075 3.492 7.075 7.807 1.134-5.65 5.507 1.334 7.776-6.983-3.671z" />
    </symbol>
    <symbol id="icon-smile" viewBox="0 0 32 32">
      <path
        d="M16 32c8.837 0 16-7.163 16-16S24.837 0 16 0 0 7.163 0 16s7.163 16 16 16zm0-29c7.18 0 13 5.82 13 13s-5.82 13-13 13S3 23.18 3 16 8.82 3 16 3zm-8 7a2 2 0 1 1 3.999-.001A2 2 0 0 1 8 10zm12 0a2 2 0 1 1 3.999-.001A2 2 0 0 1 20 10zm2.003 9.602 2.573 1.544c-1.749 2.908-4.935 4.855-8.576 4.855s-6.827-1.946-8.576-4.855l2.573-1.544C11.221 21.638 13.451 23 16 23s4.779-1.362 6.003-3.398z" />
    </symbol>
    <symbol id="icon-arrow-down" viewBox="0 0 32 32">
      <path
        d="m27.414 19.414-10 10a2 2 0 0 1-2.828 0l-10-10a2 2 0 1 1 2.828-2.828L14 23.172V4a2 2 0 1 1 4 0v19.172l6.586-6.586c.39-.39.902-.586 1.414-.586s1.024.195 1.414.586a2 2 0 0 1 0 2.828z" />
    </symbol>
  </defs>
</svg>